<?xml version="1.0" standalone="no"?>
<!DOCTYPE svg PUBLIC "-//W3C//DTD SVG 20010904//EN"
 "http://www.w3.org/TR/2001/REC-SVG-20010904/DTD/svg10.dtd">
<svg version="1.0" xmlns="http://www.w3.org/2000/svg"
 width="1309.000000pt" height="1309.000000pt" viewBox="0 0 1309.000000 1309.000000"
 preserveAspectRatio="xMidYMid meet">
<metadata>
Created by potrace 1.14, written by Peter Selinger 2001-2017
</metadata>
<g transform="translate(0.000000,1309.000000) scale(0.100000,-0.100000)"
fill="#000000" stroke="none">
<path d="M4299 9636 c-2 -3 -24 -7 -49 -11 -218 -30 -349 -70 -505 -154 -122
-66 -259 -167 -321 -238 -32 -38 -63 -73 -69 -79 -28 -30 -117 -134 -133 -155
-24 -32 -124 -197 -139 -229 -72 -158 -141 -338 -134 -348 1 -1 -5 -15 -13
-30 -13 -26 -54 -163 -62 -212 -3 -14 -7 -32 -10 -40 -3 -8 -8 -28 -10 -45 -3
-16 -9 -55 -14 -85 -5 -30 -12 -82 -15 -115 -3 -33 -12 -98 -19 -145 -19 -116
-22 -554 -4 -548 7 3 19 22 26 44 32 92 57 151 143 339 84 186 99 216 133 269
20 31 36 59 36 62 0 8 128 200 168 254 102 134 200 237 385 405 198 180 382
288 647 378 172 58 265 71 515 71 206 -1 283 -4 435 -18 25 -2 110 -7 190 -11
335 -17 517 -5 660 42 41 13 93 30 116 38 62 20 66 10 33 -75 -34 -85 -38 -99
-45 -155 -3 -22 -9 -49 -14 -60 -18 -44 -21 -64 -27 -180 -5 -115 8 -249 37
-365 5 -19 11 -48 14 -65 3 -16 10 -54 16 -83 23 -125 31 -353 16 -532 l-7
-85 21 50 c11 28 25 59 30 70 11 24 82 257 103 340 9 33 27 98 41 145 14 47
28 96 31 110 8 43 124 443 139 480 59 145 94 226 129 295 103 206 262 414 432
565 50 43 36 48 -72 25 -121 -26 -155 -33 -203 -40 -25 -3 -53 -8 -63 -11 -85
-26 -213 -32 -547 -29 -375 4 -401 6 -563 30 -56 9 -127 18 -157 21 -30 3 -82
12 -115 19 -74 18 -101 22 -190 30 -38 4 -77 8 -85 10 -8 3 -55 9 -105 15
-135 16 -174 21 -240 30 -60 8 -559 13 -566 6z"/>
<path d="M677 9503 c-2 -5 -3 -126 -3 -269 1 -155 -3 -296 -10 -345 -7 -46
-15 -115 -18 -154 -3 -38 -12 -110 -20 -160 -74 -454 -87 -570 -91 -845 -3
-176 7 -270 35 -351 11 -31 20 -64 20 -73 0 -20 62 -139 116 -224 42 -65 253
-283 304 -314 19 -11 67 -42 105 -68 120 -80 157 -98 215 -104 30 -2 79 -8
108 -12 46 -6 52 -4 52 11 0 10 -33 50 -74 89 -75 72 -146 156 -146 172 0 5
-12 20 -27 34 -37 35 -90 121 -130 209 -19 42 -38 83 -42 92 -5 8 -18 49 -30
90 -34 124 -42 194 -42 399 0 85 3 166 6 180 3 14 8 50 10 80 9 101 15 169 20
207 13 100 16 140 20 293 3 91 5 168 5 172 0 4 93 -41 208 -98 114 -58 243
-120 288 -137 99 -39 397 -219 505 -305 43 -35 99 -84 124 -110 72 -75 260
-371 295 -465 17 -45 35 -90 41 -101 14 -24 38 -108 49 -171 21 -119 29 -174
36 -240 3 -38 8 -73 10 -76 2 -4 4 -38 5 -75 1 -38 5 -78 9 -89 7 -19 7 -19
18 1 5 10 13 37 17 59 4 22 11 54 16 70 19 64 38 163 44 225 4 36 9 79 12 95
14 75 4 313 -15 366 -5 13 -10 49 -11 79 -2 50 -11 91 -31 145 -5 11 -16 45
-25 75 -9 30 -44 114 -76 185 -106 232 -281 424 -549 602 -90 60 -323 193
-440 253 -47 24 -96 51 -110 60 -24 17 -201 115 -265 148 -16 8 -39 23 -50 32
-11 10 -36 26 -55 36 -48 26 -103 65 -113 81 -4 7 -13 13 -19 13 -18 0 -184
128 -224 173 -45 50 -71 70 -77 60z"/>
<path d="M5365 8771 c-101 -25 -215 -81 -395 -195 -213 -134 -248 -146 -415
-141 -76 3 -114 11 -215 44 -148 49 -199 53 -229 14 -23 -28 -29 -46 -35 -103
-6 -63 -26 -119 -46 -130 -10 -5 -34 -10 -53 -10 -67 0 -95 -18 -114 -71 -14
-38 -23 -50 -45 -54 -38 -9 -75 -50 -83 -93 -10 -57 -29 -78 -90 -101 -118
-44 -203 -108 -207 -154 0 -12 -2 -34 -3 -49 -4 -53 53 -187 130 -303 200
-305 233 -363 255 -445 12 -46 15 -157 5 -197 -3 -13 -7 -32 -9 -43 -18 -77
-106 -231 -213 -367 -68 -88 -86 -103 -118 -97 -121 22 -586 27 -607 7 -14
-15 -16 -15 112 -18 75 -1 151 -9 215 -21 11 -2 45 -6 75 -9 30 -4 90 -15 132
-26 43 -10 85 -19 93 -19 75 0 288 314 355 524 43 134 46 232 11 326 -21 55
-62 121 -235 372 -126 184 -161 280 -129 358 15 37 50 80 66 80 17 0 174 79
186 94 7 8 14 31 16 51 4 47 28 81 59 87 38 8 63 -16 87 -83 24 -65 35 -77 52
-60 9 9 9 16 0 30 -6 10 -15 36 -19 57 -4 22 -18 58 -31 82 -44 75 -16 113 87
119 30 1 60 5 67 7 17 7 40 55 47 101 10 61 37 108 67 116 16 4 93 -7 192 -26
215 -43 224 -44 292 -33 78 12 169 49 263 107 110 68 346 191 366 191 20 0 18
-11 -21 -105 -51 -120 -76 -213 -88 -318 -4 -32 -10 -70 -15 -85 -7 -25 -8
-25 -15 -7 -54 140 -153 275 -202 275 -21 0 -23 -3 -17 -22 6 -22 21 -42 55
-79 44 -45 107 -200 135 -329 4 -19 10 -42 12 -50 9 -30 10 -417 2 -475 -5
-33 -11 -87 -14 -120 -3 -33 -8 -71 -11 -85 -2 -14 -6 -41 -9 -60 -13 -88 -86
-316 -142 -438 -25 -55 -134 -212 -158 -227 -23 -15 -54 -21 -156 -29 -30 -2
-62 -7 -70 -10 -8 -3 -37 -7 -65 -10 -68 -7 -95 -13 -205 -42 -300 -80 -553
-201 -723 -346 -31 -27 -69 -53 -85 -57 -44 -12 -352 2 -432 20 -70 16 -75 17
-139 24 -33 3 -69 8 -80 10 -65 12 -241 24 -259 18 -18 -7 5 -33 29 -33 11 0
54 -9 97 -20 42 -11 91 -22 107 -25 17 -2 39 -7 50 -9 119 -26 169 -36 220
-41 33 -4 67 -8 75 -10 58 -15 465 -23 554 -11 23 3 79 8 126 12 47 3 88 8 92
10 4 3 37 9 75 14 127 17 250 40 354 65 57 14 122 28 144 31 22 4 47 10 56 14
8 5 46 16 83 24 37 9 116 32 174 50 59 19 151 46 204 60 53 14 138 41 188 61
51 19 96 35 101 35 12 0 844 305 1094 402 116 44 250 94 300 110 49 16 94 33
100 37 5 5 48 21 94 35 47 15 99 33 115 41 17 8 85 32 152 53 66 22 165 55
220 75 96 34 246 82 519 166 142 44 300 86 470 126 61 14 153 36 205 50 108
27 175 41 240 50 84 11 115 16 170 30 60 15 155 31 240 40 30 3 71 7 90 10 19
2 62 7 95 10 33 4 74 8 90 10 190 24 595 24 795 1 19 -3 64 -7 100 -11 84 -8
141 -15 160 -20 8 -2 35 -7 60 -10 57 -8 435 -100 475 -115 17 -7 82 -30 145
-52 151 -51 413 -183 559 -280 142 -95 327 -234 423 -319 95 -83 270 -258 333
-333 28 -33 68 -79 90 -104 72 -81 305 -399 305 -417 0 -2 24 -40 54 -85 32
-49 57 -77 61 -70 4 6 2 16 -3 23 -5 7 -24 39 -42 72 -95 173 -139 243 -229
365 -43 58 -99 135 -125 172 -137 197 -430 507 -636 674 -19 16 -37 31 -40 34
-3 3 -21 17 -40 30 -19 13 -37 27 -40 30 -12 13 -143 102 -245 165 -97 60
-373 205 -391 205 -4 0 -32 11 -63 24 -117 50 -190 75 -296 100 -129 31 -147
35 -200 41 -22 3 -51 7 -65 10 -14 3 -45 7 -70 10 -25 3 -60 8 -78 11 -131 18
-527 25 -659 12 -43 -4 -125 -10 -183 -13 -57 -4 -107 -8 -110 -10 -3 -2 -26
-6 -50 -10 -25 -3 -88 -13 -140 -22 -52 -8 -107 -17 -122 -19 -70 -10 -88 -13
-168 -28 -47 -9 -114 -23 -150 -31 -36 -8 -85 -18 -110 -21 -25 -3 -70 -14
-100 -24 -30 -10 -82 -23 -115 -29 -91 -18 -140 -30 -260 -66 -60 -19 -150
-46 -200 -60 -140 -41 -783 -245 -830 -264 -11 -4 -54 -18 -95 -31 -41 -13
-115 -41 -165 -62 -49 -21 -295 -115 -545 -208 -250 -94 -494 -186 -542 -205
-48 -19 -93 -35 -101 -35 -7 0 -70 -23 -140 -50 -135 -53 -467 -169 -652 -227
-213 -67 -300 -93 -340 -102 -22 -5 -83 -21 -135 -36 -101 -29 -189 -51 -230
-59 -14 -2 -45 -9 -70 -15 -131 -30 -238 -53 -304 -64 -94 -16 -294 -13 -312
6 -13 12 60 62 171 117 123 60 466 174 555 185 25 3 72 12 105 19 64 16 114
22 240 32 44 4 91 12 105 20 28 13 108 93 137 134 9 14 23 31 30 39 42 42 141
298 177 456 23 101 28 185 41 715 8 315 12 386 24 455 6 33 14 80 17 104 12
82 79 253 128 323 25 36 46 71 46 77 0 12 -58 13 -105 2z"/>
<path d="M5537 8718 c-92 -159 -139 -301 -173 -523 -4 -22 -8 -272 -9 -555 -1
-283 -4 -526 -7 -540 -4 -14 -9 -59 -13 -100 -7 -87 -27 -178 -65 -305 -15
-49 -24 -91 -19 -93 38 -15 198 145 259 260 43 81 83 218 95 328 14 122 8 438
-10 529 -2 13 -7 55 -10 95 -3 39 -7 80 -9 91 -5 26 -14 111 -22 200 -8 90 -8
448 0 500 3 22 8 51 11 65 15 76 17 90 7 90 -6 0 -21 -19 -35 -42z"/>
<path d="M5773 8743 c-17 -28 -43 -151 -51 -233 -13 -131 -4 -463 13 -491 2
-3 7 -37 10 -75 3 -38 8 -85 10 -104 2 -19 7 -62 11 -95 3 -33 13 -105 21
-160 19 -121 27 -481 12 -545 -6 -25 -20 -79 -31 -120 -11 -41 -23 -85 -26
-98 l-5 -23 39 16 c117 48 253 176 306 286 42 88 47 99 62 164 20 83 9 231
-25 342 -17 57 -128 343 -174 448 -56 129 -107 273 -124 350 -6 28 -14 61 -17
75 -3 14 -9 84 -12 155 -6 111 -9 127 -19 108z"/>
<path d="M2350 6894 c0 -10 8 -49 19 -85 32 -113 36 -222 10 -339 -20 -96 -60
-190 -80 -190 -5 0 -9 3 -10 8 -19 174 -79 274 -196 329 -62 29 -123 41 -123
24 0 -6 4 -11 8 -11 5 0 29 -20 54 -45 53 -52 113 -148 129 -208 15 -55 18
-159 6 -174 -6 -9 -38 -13 -91 -13 -121 0 -192 -15 -281 -59 -79 -39 -160
-105 -150 -122 6 -9 29 -2 60 17 31 20 203 55 267 55 65 0 126 -14 180 -42 58
-29 49 -45 -28 -52 -84 -8 -163 -44 -199 -91 -15 -20 -25 -40 -21 -43 4 -4 44
3 89 15 45 12 93 25 107 28 14 4 66 6 115 7 124 0 150 -14 160 -85 11 -76 7
-125 -14 -193 -10 -33 -17 -62 -15 -64 8 -8 57 44 92 98 24 38 38 75 46 124 7
39 17 72 24 75 6 2 33 -17 60 -42 27 -25 52 -46 56 -46 11 0 6 24 -14 65 -10
22 -15 41 -10 43 5 2 78 -14 162 -36 199 -51 268 -65 428 -87 25 -4 75 -12
113 -19 37 -7 101 -14 142 -15 41 -1 85 -4 97 -6 13 -3 45 -9 73 -14 50 -9
631 -7 663 3 24 7 100 15 213 21 53 3 104 7 115 9 10 2 53 9 94 16 41 6 102
18 135 25 207 45 273 60 480 106 127 28 241 53 255 55 41 8 207 53 330 89 63
19 127 36 141 39 14 2 95 22 180 44 154 40 383 94 534 128 44 9 123 28 175 41
52 13 138 32 190 43 52 10 147 30 210 44 107 24 309 60 390 70 67 8 126 18
220 36 52 10 120 21 150 25 30 3 66 8 80 10 14 2 48 7 75 10 49 5 103 12 156
21 15 2 47 6 70 9 24 3 78 10 119 15 41 5 98 12 125 15 28 3 64 7 80 9 74 9
157 16 236 21 47 3 110 7 140 10 263 23 451 30 809 29 237 -1 356 -5 381 -13
19 -6 78 -13 130 -16 52 -2 126 -7 164 -11 39 -4 77 -8 85 -9 72 -6 388 -60
465 -80 33 -9 76 -18 95 -21 19 -3 60 -12 90 -21 30 -8 69 -17 85 -20 86 -12
550 -176 765 -269 97 -42 264 -129 316 -164 25 -17 69 -42 98 -57 59 -30 134
-79 264 -176 51 -37 98 -67 104 -65 6 2 -15 29 -46 60 -46 45 -216 164 -486
341 -14 9 -52 35 -85 58 -59 40 -84 53 -290 147 -191 86 -342 145 -455 177
-47 13 -116 33 -155 45 -127 38 -370 99 -421 105 -27 3 -71 10 -99 15 -27 5
-63 11 -80 14 -16 2 -37 6 -45 9 -8 3 -48 8 -89 12 -41 3 -77 7 -80 9 -3 2
-42 7 -86 11 -44 3 -96 9 -115 12 -77 13 -903 4 -1050 -12 -19 -2 -71 -6 -115
-10 -44 -3 -91 -8 -105 -10 -14 -2 -56 -7 -95 -10 -38 -3 -95 -8 -125 -10 -30
-3 -75 -8 -100 -11 -25 -3 -57 -7 -70 -8 -14 -2 -70 -9 -125 -15 -109 -13
-152 -20 -175 -26 -8 -2 -42 -6 -75 -10 -33 -3 -78 -10 -100 -15 -22 -5 -67
-12 -100 -15 -33 -4 -63 -9 -66 -11 -4 -2 -28 -6 -55 -9 -27 -4 -80 -13 -119
-21 -38 -8 -110 -21 -160 -29 -49 -9 -137 -24 -195 -36 -58 -11 -114 -21 -125
-23 -11 -2 -74 -18 -140 -34 -66 -17 -139 -33 -161 -36 -23 -2 -59 -9 -80 -15
-22 -5 -59 -13 -84 -16 -24 -4 -48 -9 -52 -12 -5 -2 -21 -6 -36 -9 -15 -2 -63
-13 -107 -23 -44 -11 -91 -22 -105 -24 -14 -3 -70 -16 -125 -30 -55 -15 -175
-42 -266 -61 -91 -19 -229 -51 -305 -70 -76 -19 -155 -38 -174 -41 -36 -6
-147 -32 -366 -86 -67 -17 -132 -32 -145 -34 -22 -3 -78 -14 -319 -60 -47 -10
-96 -19 -110 -21 -14 -3 -108 -21 -210 -40 -102 -20 -192 -37 -200 -39 -55
-10 -148 -20 -270 -29 -121 -9 -168 -13 -260 -23 -139 -15 -570 -6 -665 13
-11 3 -36 7 -55 9 -202 30 -294 50 -475 102 -66 20 -131 38 -144 42 -39 11
-36 29 6 40 21 6 43 11 50 11 6 0 24 5 40 11 41 15 12 29 -63 29 -37 0 -87 9
-130 24 -66 22 -69 25 -66 52 10 92 104 210 238 300 117 79 105 90 -44 38 -77
-26 -162 -76 -197 -114 -25 -28 -35 -16 -22 28 17 60 13 257 -7 327 -20 67
-91 207 -118 232 -17 15 -18 15 -18 -3z"/>
<path d="M1149 6545 c-3 -2 -38 -5 -79 -6 -54 -2 -109 -14 -193 -41 -146 -47
-160 -54 -272 -140 -130 -100 -184 -155 -306 -313 -59 -77 -118 -151 -131
-165 -33 -36 -125 -110 -136 -110 -5 0 -15 -6 -21 -14 -16 -19 2 -31 72 -44
107 -21 236 -82 396 -188 121 -80 110 -73 226 -145 49 -31 119 -69 155 -86
109 -51 125 -54 275 -59 105 -3 132 0 215 22 121 32 357 146 369 177 57 144
68 177 61 182 -4 3 -34 -9 -67 -26 -171 -92 -217 -111 -288 -117 -143 -11
-306 -5 -336 14 -5 3 -17 7 -26 9 -79 16 -315 126 -418 195 -22 15 -65 40 -95
55 -30 15 -70 38 -88 52 -38 29 -33 42 29 73 20 11 59 45 85 77 27 32 61 71
75 88 15 16 47 53 71 82 68 81 130 130 215 172 70 35 210 80 303 96 44 8 266
8 300 0 14 -3 48 -8 75 -11 28 -3 101 -16 164 -30 120 -27 151 -24 112 13 -36
33 -251 120 -381 153 -95 24 -153 33 -241 35 -64 3 -118 3 -120 0z"/>
<path d="M8608 5824 c-3 -5 -11 -26 -17 -46 -13 -38 -13 -38 -69 -38 l-57 0
40 -27 c22 -14 42 -27 44 -29 2 -2 -1 -22 -7 -46 -13 -49 -9 -57 15 -36 44 38
58 39 101 8 l41 -29 -14 47 c-8 26 -15 48 -15 49 0 1 19 15 42 32 l42 31 -52
0 c-56 0 -51 -4 -79 69 -5 14 -12 21 -15 15z"/>
<path d="M2105 5762 c-59 -10 -164 -71 -215 -124 -92 -98 -139 -335 -95 -483
20 -69 68 -170 128 -270 41 -68 68 -127 70 -152 1 -31 64 -11 172 54 287 175
351 231 421 372 42 85 47 103 52 180 4 75 1 97 -22 165 -15 43 -35 89 -45 102
-18 23 -18 22 -24 -84 -9 -176 -48 -263 -170 -378 -61 -58 -106 -91 -168 -122
-47 -23 -93 -42 -101 -42 -9 0 -34 30 -56 68 -83 139 -111 310 -69 433 32 94
84 175 140 216 27 20 47 43 47 54 0 19 -10 21 -65 11z"/>
<path d="M10265 5638 c-10 -47 -20 -55 -66 -53 l-42 2 36 -31 c35 -29 36 -33
27 -66 -15 -52 -13 -55 25 -26 l35 27 36 -27 35 -27 -7 29 c-4 16 -10 36 -15
44 -5 11 2 22 27 39 44 31 43 40 -5 36 -33 -3 -40 0 -50 21 -6 14 -11 31 -11
39 0 29 -19 24 -25 -7z"/>
<path d="M3240 5534 c0 -3 7 -12 15 -21 14 -13 13 -17 -5 -40 -35 -45 -23 -61
15 -20 38 40 41 50 23 64 -17 13 -48 24 -48 17z"/>
<path d="M3190 5515 c-13 -15 -5 -54 8 -41 6 6 12 56 6 56 -1 0 -7 -7 -14 -15z"/>
<path d="M7814 5479 c-9 -43 -10 -44 -56 -49 l-48 -5 36 -24 c37 -26 38 -29
17 -101 l-7 -25 33 28 c18 15 36 27 41 27 5 0 23 -12 40 -26 l31 -26 -5 23
c-2 13 -7 35 -10 49 -5 20 0 30 28 50 l34 25 -45 5 c-32 3 -47 10 -48 21 -2 9
-9 28 -17 44 l-15 27 -9 -43z"/>
<path d="M9459 5480 c-14 -44 -15 -45 -64 -50 l-50 -5 38 -23 c39 -25 43 -35
27 -78 -14 -36 -7 -40 28 -15 38 26 38 26 80 -6 l35 -26 -7 24 c-20 73 -20 75
21 100 l38 24 -51 3 -51 3 -15 47 -14 47 -15 -45z"/>
<path d="M4348 5406 c-41 -18 -147 -100 -148 -113 0 -7 9 -13 19 -13 11 0 23
-5 26 -10 9 -14 9 -299 1 -308 -4 -4 -12 -7 -17 -7 -5 0 -9 -3 -9 -7 0 -5 0
-11 0 -16 0 -4 44 -7 98 -7 95 0 97 -1 95 -23 -2 -14 3 -22 12 -22 17 0 155
97 155 109 0 18 -14 17 -53 -2 -46 -23 -153 -32 -174 -15 -18 15 -18 164 0
171 18 7 34 -4 38 -26 9 -42 24 -18 27 42 3 69 -12 104 -24 55 -8 -33 -21 -45
-41 -37 -9 4 -13 30 -13 98 0 94 8 115 39 96 10 -6 9 -12 -4 -25 -14 -14 -14
-17 -2 -22 15 -5 117 60 117 75 0 16 -13 19 -35 9 -16 -7 -33 -7 -52 0 -20 7
-37 6 -55 -2z"/>
<path d="M3211 5353 c-70 -55 -72 -58 -52 -72 12 -7 21 -21 21 -30 0 -19 -80
-273 -90 -284 -4 -5 -16 -10 -26 -11 -11 -2 -19 -9 -19 -17 0 -13 76 -21 117
-11 18 4 13 33 -5 29 -16 -3 -12 84 4 93 6 4 34 7 62 6 44 -1 53 -5 64 -26 16
-30 13 -76 -4 -72 -7 1 -13 -4 -13 -12 0 -19 14 -22 99 -22 75 1 107 17 58 30
-25 6 -31 18 -138 308 l-28 76 21 27 c13 17 17 30 11 36 -6 6 -36 -12 -82 -48z
m42 -247 c2 -17 -4 -21 -28 -22 -53 -1 -55 3 -32 69 l20 61 19 -44 c11 -24 20
-53 21 -64z"/>
<path d="M4013 5397 c-34 -17 -153 -100 -153 -106 0 -4 12 -11 28 -17 l27 -11
-1 -144 c-1 -79 -2 -147 -3 -151 0 -4 -10 -10 -22 -13 -14 -5 -17 -10 -10 -19
12 -15 208 -14 236 1 55 30 86 98 71 157 -3 14 -21 42 -38 62 -19 21 -27 38
-21 42 51 33 37 162 -20 190 -33 16 -73 20 -94 9z m70 -40 c4 -7 6 -34 4 -61
-4 -41 -10 -55 -37 -79 -33 -30 -34 -30 -42 -8 -9 26 -6 141 5 158 9 14 58 7
70 -10z m10 -215 c39 -34 10 -149 -44 -177 -26 -14 -29 -13 -37 2 -13 23 -12
186 0 194 14 9 61 -2 81 -19z"/>
<path d="M4777 5357 c-36 -29 -66 -56 -67 -60 0 -5 9 -16 21 -26 17 -14 19
-21 10 -41 -5 -14 -26 -77 -46 -140 -34 -106 -56 -147 -75 -135 -5 3 -10 -2
-14 -10 -3 -8 -1 -16 4 -16 27 -4 116 -5 122 -2 12 6 -3 33 -19 33 -12 0 -14
8 -8 38 10 52 18 58 77 58 51 -1 54 -2 72 -40 l19 -39 -23 -17 c-13 -9 -20
-21 -17 -26 8 -14 170 -11 174 3 3 7 -6 15 -19 18 -20 5 -34 33 -91 185 -37
98 -67 186 -67 196 0 10 9 28 21 40 16 17 17 23 6 27 -7 3 -44 -18 -80 -46z
m25 -205 c24 -64 24 -67 -22 -68 -36 -2 -40 1 -37 20 6 39 30 106 36 101 3 -3
13 -27 23 -53z"/>
<path d="M6229 5390 c-14 -10 -38 -21 -53 -24 -39 -7 -44 -15 -22 -31 11 -8
16 -21 13 -30 -8 -20 -70 -104 -78 -105 -12 0 -79 93 -79 110 0 10 9 29 20 43
43 54 18 50 -81 -14 -72 -47 -92 -67 -71 -70 4 -1 18 -3 31 -4 13 -1 26 -7 30
-12 3 -5 25 -34 49 -65 41 -53 43 -60 44 -124 0 -100 1 -100 -29 -113 -18 -8
-23 -15 -15 -20 14 -8 159 -7 168 1 9 10 -6 29 -17 23 -15 -10 -21 21 -23 116
l-1 89 81 112 c45 61 80 118 77 125 -7 17 -13 16 -44 -7z"/>
<path d="M6494 5395 c-48 -20 -67 -50 -67 -102 0 -41 4 -50 36 -78 19 -17 65
-45 100 -63 46 -23 69 -42 80 -64 33 -67 -9 -141 -79 -141 -29 0 -43 7 -66 32
l-30 33 22 20 c27 26 23 68 -8 84 -32 16 -55 8 -74 -24 -53 -93 115 -211 232
-164 81 33 120 136 80 212 -16 30 -70 67 -131 89 -31 12 -64 30 -73 40 -40 45
11 123 67 102 29 -11 47 -55 28 -74 -6 -6 -11 -15 -11 -19 0 -15 24 -8 72 23
58 37 64 60 14 52 -27 -4 -42 0 -68 20 -40 31 -85 39 -124 22z"/>
<path d="M7258 5354 c-38 -30 -68 -59 -68 -64 0 -5 9 -12 20 -15 11 -3 20 -10
20 -15 0 -10 -55 -187 -78 -249 -11 -31 -24 -47 -45 -56 -41 -17 -18 -30 56
-30 58 0 79 17 36 30 -21 7 -21 21 0 78 8 21 15 23 63 21 29 -1 56 -2 59 -3 3
0 11 -18 17 -38 11 -35 10 -40 -10 -56 -31 -26 -14 -33 78 -32 80 0 104 13 61
32 -18 9 -37 47 -90 189 -37 99 -67 183 -67 187 0 5 9 21 20 37 17 24 18 41 1
40 -3 0 -36 -25 -73 -56z m28 -206 c9 -29 17 -55 16 -58 -2 -6 -82 -8 -82 -2
0 18 33 112 40 112 5 0 16 -24 26 -52z"/>
<path d="M2751 5349 c-73 -52 -84 -67 -53 -76 17 -4 19 -17 20 -149 1 -146 -3
-162 -40 -177 -36 -15 26 -22 169 -21 87 1 161 2 166 3 14 2 7 21 -8 21 -26 0
-30 31 -29 215 1 167 3 177 24 199 33 36 7 42 -37 9 -21 -15 -44 -34 -52 -41
-8 -7 -24 -20 -37 -29 -29 -19 -30 -30 -3 -38 16 -5 20 -14 17 -43 -3 -35 -4
-37 -43 -37 l-40 0 -2 75 c-2 61 1 80 17 102 33 45 7 40 -69 -13z m139 -290
c0 -91 -9 -111 -45 -104 -11 2 -25 4 -31 4 -8 1 -12 30 -11 89 0 48 1 90 3 93
2 3 21 5 43 5 l41 0 0 -87z"/>
<path d="M3498 5379 c-6 -4 -7 -12 -4 -18 4 -6 11 -9 16 -6 21 13 27 -34 27
-207 l1 -186 -25 -7 c-13 -3 -23 -11 -21 -17 5 -15 166 -19 175 -5 5 9 -9 22
-32 30 -6 2 -10 79 -10 191 -1 187 0 189 22 199 27 12 30 27 6 28 -76 5 -145
4 -155 -2z"/>
<path d="M5322 5382 c-19 -6 -14 -18 11 -29 22 -10 23 -14 22 -159 -1 -82 -4
-158 -8 -169 -18 -48 -93 -73 -144 -48 -46 22 -53 49 -53 202 0 125 2 140 20
156 22 20 27 45 8 45 -17 -1 -148 -98 -148 -110 0 -5 8 -11 18 -14 15 -5 18
-18 17 -98 -1 -51 2 -108 6 -126 21 -97 152 -146 246 -92 70 39 72 48 73 238
l2 170 24 6 c22 6 34 25 17 27 -25 4 -102 4 -111 1z"/>
<path d="M5513 5349 c-87 -58 -84 -85 3 -34 25 14 52 23 66 21 13 -3 26 -5 29
-5 3 -1 6 -82 6 -182 l1 -180 -24 -11 c-43 -20 -11 -35 71 -33 41 1 77 4 81 8
9 8 -6 28 -16 22 -19 -12 -24 28 -25 193 -1 154 1 175 16 183 23 12 25 12 45
-8 15 -16 20 -15 70 11 58 30 72 53 27 41 -54 -14 -254 -12 -268 2 -8 7 -15
13 -17 13 -2 0 -31 -19 -65 -41z"/>
<path d="M6750 5374 c0 -7 9 -16 20 -19 24 -8 22 11 25 -220 2 -166 0 -194
-16 -222 -25 -45 -7 -50 43 -13 24 17 58 40 76 51 32 21 43 49 19 49 -8 0 -22
9 -31 19 -16 18 -16 22 -2 49 18 34 75 85 121 106 82 39 76 152 -10 199 -29
16 -245 16 -245 1z m195 -45 c29 -26 35 -38 35 -70 0 -33 -7 -45 -42 -79 -24
-22 -46 -40 -49 -40 -7 0 -9 201 -2 213 8 13 22 7 58 -24z"/>
<path d="M10819 5330 c-15 -43 -18 -45 -59 -50 l-44 -5 36 -24 36 -25 -14 -39
c-8 -22 -13 -42 -11 -43 2 -2 18 7 37 21 l33 24 35 -27 c31 -23 34 -24 29 -7
-20 66 -19 72 12 98 17 14 31 27 31 29 0 2 -19 3 -42 3 -41 0 -42 1 -53 45
l-11 45 -15 -45z"/>
<path d="M7799 5095 c-51 -28 -76 -131 -57 -234 24 -135 189 -136 215 -2 19
93 -4 208 -45 230 -34 18 -86 21 -113 6z m68 -53 c22 -14 32 -60 29 -128 -3
-56 -8 -71 -27 -87 -22 -18 -23 -18 -42 1 -39 39 -27 222 15 222 7 0 18 -4 25
-8z"/>
<path d="M8072 5099 c-49 -19 -77 -74 -65 -130 12 -60 91 -97 144 -68 18 9 19
8 13 -18 -11 -48 -24 -63 -50 -63 -17 0 -28 7 -31 19 -3 14 -13 18 -36 16 -40
-3 -43 -27 -7 -65 48 -52 141 -35 177 33 20 39 23 154 4 209 -19 58 -91 90
-149 67z m72 -65 c32 -31 14 -84 -29 -84 -27 0 -45 18 -45 46 0 25 24 54 45
54 7 0 21 -7 29 -16z"/>
<path d="M8375 5102 c-75 -26 -105 -99 -90 -220 13 -102 92 -150 176 -106 71
36 69 153 -3 190 -35 18 -58 18 -86 -2 -25 -17 -26 -14 -12 38 13 47 46 60 72
29 23 -29 75 -26 70 4 -8 47 -77 84 -127 67z m59 -201 c14 -16 16 -26 9 -48
-13 -37 -54 -44 -77 -11 -20 29 -20 34 4 58 25 25 42 25 64 1z"/>
<path d="M8624 5102 c-31 -4 -54 -34 -61 -75 -4 -29 -1 -40 20 -61 18 -18 21
-26 11 -30 -23 -9 -46 -65 -39 -96 17 -79 137 -109 196 -51 39 39 41 97 4 131
l-24 23 19 25 c39 48 18 112 -43 130 -32 10 -43 11 -83 4z m69 -56 c34 -26 15
-76 -30 -76 -33 0 -49 35 -28 66 17 27 32 30 58 10z m0 -138 c25 -20 29 -63 7
-83 -44 -40 -100 15 -70 70 15 27 37 32 63 13z"/>
<path d="M9025 4996 c-59 -87 -76 -120 -73 -141 3 -29 4 -29 73 -29 l70 -1 -3
-32 c-3 -32 -2 -33 33 -33 23 0 35 5 34 13 -3 26 1 57 9 56 22 -4 30 4 34 31
3 21 1 29 -7 26 -30 -11 -38 12 -39 115 l-1 104 -27 2 c-24 2 -36 -11 -103
-111z m68 -58 c-4 -54 -9 -57 -75 -49 -4 1 10 25 30 55 20 29 40 49 43 45 3
-5 4 -28 2 -51z"/>
<path d="M9314 5103 c-53 -10 -84 -85 -79 -190 5 -110 39 -153 121 -153 75 0
113 79 101 209 -7 74 -23 107 -62 126 -33 15 -41 16 -81 8z m68 -77 c15 -23
14 -156 -2 -186 -16 -31 -58 -26 -71 8 -14 37 -7 165 10 186 15 17 50 13 63
-8z"/>
<path d="M9565 5096 c-74 -32 -80 -162 -8 -195 30 -14 68 -14 93 -1 16 9 18 7
14 -17 -8 -44 -23 -63 -50 -63 -17 0 -28 7 -31 19 -4 15 -11 18 -36 14 -18 -3
-33 -6 -35 -8 -8 -7 30 -65 47 -75 51 -27 130 -1 157 53 22 41 25 149 7 204
-23 66 -94 97 -158 69z m87 -70 c14 -20 8 -64 -8 -70 -57 -22 -100 37 -58 79
17 16 53 12 66 -9z"/>
<path d="M9845 5101 c-71 -31 -90 -127 -36 -182 22 -22 39 -29 68 -29 22 0 45
6 52 13 11 10 13 6 7 -22 -8 -44 -23 -61 -53 -61 -16 0 -27 7 -30 20 -4 16
-11 19 -32 14 -14 -4 -29 -9 -33 -11 -12 -7 20 -61 44 -74 31 -17 105 -5 133
21 63 59 55 262 -12 298 -29 16 -86 22 -108 13z m67 -63 c39 -32 25 -88 -21
-88 -33 0 -38 4 -45 43 -8 45 32 72 66 45z"/>
<path d="M10190 5074 l0 -34 75 0 75 0 -25 -39 c-37 -56 -74 -157 -77 -211 -1
-23 6 -30 32 -30 24 0 30 4 31 23 2 71 40 172 89 241 53 73 44 81 -88 82
l-112 2 0 -34z"/>
<path d="M10533 5103 c-55 -11 -83 -102 -43 -138 19 -18 19 -18 -5 -47 -29
-35 -32 -69 -8 -109 22 -37 62 -53 117 -47 56 7 86 35 93 87 5 35 2 44 -24 69
-26 27 -28 31 -12 40 40 25 28 119 -17 136 -25 10 -76 14 -101 9z m63 -51 c32
-22 18 -82 -19 -82 -44 0 -62 43 -31 74 17 17 33 20 50 8z m5 -142 c13 -7 19
-21 19 -43 0 -38 -15 -57 -45 -57 -29 0 -45 19 -45 51 0 27 22 59 41 59 6 0
19 -5 30 -10z"/>
<path d="M6305 4977 c-14 -20 -14 -23 5 -39 23 -18 45 -15 54 8 15 40 -34 66
-59 31z"/>
<path d="M2572 4793 c3 -17 130 -18 2485 -20 2446 -2 2481 -1 2486 18 5 19
-28 19 -2485 19 -2366 0 -2489 -1 -2486 -17z"/>
<path d="M2918 4441 c-153 -50 -260 -162 -260 -271 0 -166 183 -215 294 -79
43 54 78 152 78 221 0 67 -12 55 -17 -18 -9 -115 -69 -219 -147 -255 -99 -45
-167 2 -153 105 16 117 88 226 181 273 97 50 250 38 318 -24 23 -21 23 -25 -7
-57 -57 -62 -126 -161 -162 -235 -34 -72 -41 -80 -73 -86 -36 -7 -115 -44
-108 -50 2 -2 26 2 53 10 77 24 79 22 44 -47 -45 -90 -43 -89 -92 -72 -23 9
-71 17 -107 19 l-65 4 55 -12 c30 -8 72 -22 94 -32 l38 -18 -38 -20 c-66 -34
-187 -8 -180 39 1 9 9 20 17 25 12 7 12 9 -1 9 -8 0 -20 -8 -27 -19 -25 -40
39 -81 127 -81 20 0 60 6 90 14 44 12 62 12 90 2 19 -6 58 -13 85 -14 l50 -2
-53 19 c-76 26 -79 33 -33 64 22 15 52 42 68 62 18 23 36 35 53 35 29 0 134
48 107 49 -9 1 -34 -8 -54 -19 -37 -20 -63 -26 -63 -15 0 4 6 18 14 33 7 15
28 81 46 147 36 137 65 209 80 200 6 -3 17 -19 25 -35 40 -77 41 -235 2 -330
-21 -52 -22 -60 -7 -40 28 36 58 173 54 245 -4 65 -26 136 -50 155 -22 19 -17
43 15 65 41 27 32 31 -13 5 l-36 -22 -30 22 c-70 50 -203 63 -302 31z"/>
<path d="M8427 4422 c-9 -2 -17 -8 -17 -13 0 -16 -92 -172 -121 -204 -15 -16
-50 -59 -79 -95 -50 -62 -50 -63 -6 -15 25 28 46 46 46 42 0 -5 -22 -47 -50
-94 -27 -47 -50 -87 -50 -89 0 -2 -25 -44 -55 -93 l-54 -90 37 3 c20 3 46 5
57 5 12 1 28 13 37 29 9 15 46 62 82 105 37 42 63 77 58 77 -5 0 -29 -25 -53
-55 -24 -30 -45 -53 -47 -51 -5 5 213 389 259 458 57 83 57 86 12 85 -22 -1
-47 -3 -56 -5z"/>
<path d="M8140 4393 c-9 -2 -47 -56 -85 -119 -57 -97 -140 -212 -224 -309 -45
-54 -26 -43 28 15 33 36 61 62 61 58 0 -4 -18 -42 -40 -84 -45 -86 -51 -133
-20 -164 46 -46 124 -3 197 110 20 30 52 75 70 100 l35 45 -42 -45 c-23 -25
-57 -67 -75 -95 -56 -87 -145 -154 -145 -109 0 21 82 183 167 332 l65 112 51
2 52 2 -47 3 -48 4 31 57 c17 31 35 61 40 67 22 23 -8 31 -71 18z"/>
<path d="M4011 4286 c-22 -41 -46 -80 -53 -87 -7 -8 -29 -34 -48 -59 -19 -25
-41 -51 -48 -59 -35 -37 -123 -153 -119 -157 2 -3 29 28 60 68 30 40 65 82 78
93 27 24 44 55 -175 -323 -80 -139 -146 -254 -146 -257 0 -3 22 -5 49 -5 l49
0 87 159 c127 231 330 474 375 446 5 -3 -16 -44 -47 -91 -69 -106 -86 -157
-68 -201 15 -35 43 -48 82 -38 26 6 127 96 144 127 5 9 -17 -8 -48 -39 -71
-68 -98 -87 -117 -80 -12 5 -1 29 44 104 62 102 78 152 61 196 -12 31 -49 43
-83 27 -12 -6 -61 -50 -106 -98 l-84 -87 43 85 c24 47 76 142 116 213 40 70
73 130 73 132 0 3 -18 5 -39 5 -38 0 -40 -2 -80 -74z"/>
<path d="M7168 4268 c-18 -24 -41 -52 -51 -63 -65 -70 -29 -73 63 -5 72 54 87
74 69 96 -20 24 -46 15 -81 -28z"/>
<path d="M8753 4289 c-6 -6 -9 -18 -6 -27 6 -23 142 -122 167 -122 26 0 53
-49 33 -62 -18 -11 -27 -10 -33 6 -3 8 -13 17 -22 21 -14 5 -15 4 -4 -6 22
-24 13 -87 -24 -165 -19 -41 -42 -74 -49 -74 -8 0 -20 -12 -27 -27 -16 -34
-61 -57 -95 -48 -23 5 -25 10 -20 40 8 48 81 193 119 237 18 21 44 42 58 48
21 9 16 10 -28 6 -67 -6 -120 -43 -204 -139 -145 -166 -218 -228 -218 -184 0
6 22 46 48 87 56 88 70 123 67 168 -3 40 -21 62 -50 62 -24 0 -85 -41 -124
-84 -39 -42 -10 -29 34 15 85 85 115 75 50 -17 -53 -74 -85 -139 -85 -174 0
-66 50 -96 109 -66 28 15 121 111 121 126 0 4 7 10 15 14 12 4 14 -4 13 -38
-5 -101 94 -149 181 -87 15 11 31 18 34 15 19 -20 80 23 142 97 63 76 60 76
-16 -3 -46 -49 -90 -88 -97 -88 -19 0 -14 25 9 46 35 31 70 101 72 140 2 35 5
39 58 62 63 27 84 57 70 96 -17 43 -63 48 -101 11 l-27 -26 -47 61 c-26 33
-54 66 -62 75 -18 18 -45 20 -61 4z"/>
<path d="M5645 4268 c-37 -20 -83 -70 -78 -84 4 -11 14 -7 39 16 42 37 70 38
136 4 60 -31 84 -27 136 21 43 39 37 55 -12 31 -44 -21 -55 -20 -107 4 -49 22
-84 25 -114 8z"/>
<path d="M6050 4258 c-25 -27 -26 -50 -2 -71 24 -22 45 -21 64 1 53 62 -6 130
-62 70z"/>
<path d="M7473 4265 c-27 -19 -31 -66 -7 -85 23 -20 66 -1 78 33 19 52 -26 84
-71 52z"/>
<path d="M9203 4265 c-27 -19 -31 -66 -7 -85 23 -20 66 -1 78 33 19 52 -26 84
-71 52z"/>
<path d="M10216 4265 c-25 -26 -29 -55 -10 -76 21 -24 46 -24 66 -1 22 25 26
44 17 70 -10 26 -50 30 -73 7z"/>
<path d="M7226 4184 c-9 -8 -16 -18 -17 -22 0 -4 -2 -15 -4 -24 -2 -9 3 -22
11 -29 18 -15 18 -25 -3 -33 -10 -4 -26 2 -42 16 -14 13 -19 15 -12 5 21 -27
7 -107 -30 -177 -18 -33 -39 -60 -46 -60 -8 0 -16 -8 -20 -17 -3 -10 -17 -28
-32 -41 l-26 -24 35 18 c19 10 39 17 44 15 29 -8 96 40 145 105 8 11 26 33 40
49 14 17 -12 -9 -59 -57 -80 -82 -110 -103 -110 -77 0 6 14 27 31 47 40 45 67
106 65 142 -2 23 3 29 34 39 59 20 77 32 89 58 15 33 14 40 -9 63 -24 24 -63
26 -84 4z"/>
<path d="M3585 4113 c-52 -14 -225 -154 -225 -183 0 -6 4 -9 9 -5 6 3 9 -10 7
-32 -5 -68 47 -123 116 -123 18 0 56 11 83 24 53 25 145 100 145 119 0 6 -21
-10 -47 -36 -77 -78 -191 -122 -207 -81 -3 9 -2 33 4 53 9 35 13 39 64 50 48
11 130 54 161 84 62 62 34 138 -49 136 -23 -1 -50 -4 -61 -6z m93 -33 c3 -30
-44 -106 -85 -136 -34 -25 -92 -49 -99 -41 -10 10 49 118 89 164 31 34 45 43
66 41 19 -2 27 -9 29 -28z"/>
<path d="M4673 4034 c-46 -48 -83 -92 -83 -99 0 -7 37 25 82 71 45 46 85 84
90 84 26 0 -14 -91 -94 -218 -33 -52 -58 -96 -56 -98 2 -2 28 -1 56 3 l52 6
69 96 c84 117 177 221 198 221 26 0 8 -54 -63 -194 -35 -71 -64 -129 -62 -130
2 -1 26 0 53 2 49 4 52 5 79 53 71 126 212 286 242 275 13 -5 12 -13 -11 -54
-15 -26 -34 -54 -41 -62 -28 -34 -49 -111 -46 -167 3 -30 45 -57 76 -49 29 7
117 85 135 120 24 45 41 41 35 -8 -5 -33 -2 -52 12 -75 35 -59 100 -54 163 14
23 25 41 41 41 37 0 -5 -5 -13 -10 -18 -16 -16 6 -62 33 -69 12 -3 34 -2 49 4
25 9 87 66 118 106 8 11 35 45 59 75 l44 55 -53 -55 c-29 -30 -68 -74 -87 -97
-31 -38 -89 -83 -107 -83 -16 0 -2 38 53 142 32 62 68 130 80 150 l22 37 -46
-3 c-30 -3 -51 -10 -60 -22 -13 -18 -14 -18 -39 9 -28 30 -60 34 -109 13 -31
-13 -106 -87 -240 -238 -60 -69 -100 -98 -113 -85 -3 3 19 51 48 108 55 109
68 178 38 213 -34 42 -132 -17 -197 -119 -30 -48 -50 -60 -38 -22 4 12 9 45
12 73 14 132 -102 100 -209 -58 -39 -57 -54 -62 -33 -11 36 85 21 153 -33 153
-21 0 -46 -19 -109 -86z m971 60 c25 -24 20 -42 -41 -153 -64 -117 -105 -164
-137 -159 -25 4 -26 42 -2 88 32 61 45 86 65 131 24 55 67 109 86 109 8 0 21
-7 29 -16z"/>
<path d="M6479 4032 c-49 -49 -89 -94 -89 -100 0 -6 40 29 88 79 118 118 149
122 71 8 -56 -83 -78 -135 -72 -173 7 -48 53 -90 53 -49 0 9 22 50 48 92 74
116 90 181 54 214 -35 32 -59 21 -153 -71z"/>
<path d="M7030 4099 c-30 -13 -80 -56 -150 -129 -70 -72 -113 -110 -127 -110
-20 0 -19 4 16 58 45 67 65 124 57 158 -12 48 -79 21 -121 -50 -32 -56 -39
-101 -20 -138 18 -37 15 -41 -43 -78 -26 -16 -42 -30 -36 -30 7 0 35 16 64 35
29 19 63 35 75 35 13 0 44 18 70 40 25 22 48 40 50 40 3 0 3 -23 2 -51 -1 -46
2 -54 31 -80 24 -22 42 -29 70 -28 36 1 36 2 7 8 -27 6 -30 10 -28 44 3 41 65
174 108 232 16 21 43 44 60 51 l30 13 -35 0 c-19 0 -55 -9 -80 -20z m-234 -83
c6 -16 -22 -74 -59 -124 -18 -24 -27 -29 -34 -20 -20 26 -21 46 -3 85 26 59
83 93 96 59z"/>
<path d="M9741 4109 c-64 -25 -223 -177 -196 -186 6 -2 8 -25 7 -53 -3 -42 0
-53 22 -75 30 -30 59 -32 109 -6 23 12 37 15 37 7 0 -21 -15 -33 -55 -46 -52
-17 -149 -65 -201 -101 -98 -67 -91 -189 11 -189 47 0 128 43 181 97 27 27 71
88 99 135 44 75 56 89 103 113 37 20 71 49 108 96 30 37 54 71 54 74 0 8 -19
-12 -51 -55 -15 -19 -39 -48 -55 -63 -28 -28 -83 -62 -89 -55 -4 4 121 203
158 252 l29 37 -61 -2 c-49 -2 -62 -5 -66 -20 -4 -11 -11 -19 -16 -19 -6 0 -8
4 -5 9 3 5 -5 20 -19 35 -25 27 -60 33 -104 15z m99 -34 c48 -58 -145 -318
-216 -291 -35 13 64 207 145 283 28 27 53 29 71 8z m-187 -402 c-75 -140 -132
-203 -183 -203 -92 0 -45 116 83 204 42 29 103 59 134 66 1 0 -14 -30 -34 -67z"/>
<path d="M10374 4091 c-50 -36 -137 -129 -157 -167 -8 -16 -42 -55 -75 -86
-33 -32 -57 -58 -53 -58 11 0 91 77 125 120 l27 35 -7 -37 c-8 -49 11 -102 42
-117 50 -22 84 -11 143 49 14 14 23 22 19 17 -3 -5 -2 -22 4 -38 12 -35 46
-46 89 -29 33 14 131 119 126 135 -8 22 126 175 153 175 23 0 -25 -100 -116
-241 -24 -38 -44 -71 -44 -74 0 -8 115 4 118 13 4 14 94 136 147 199 71 85
155 147 155 114 0 -5 -23 -44 -50 -86 -60 -90 -70 -113 -70 -166 0 -41 26 -79
56 -79 34 0 87 35 134 88 70 78 54 78 -20 -1 -74 -80 -150 -109 -104 -40 66
100 105 182 106 224 0 46 -24 79 -57 79 -29 0 -94 -48 -136 -100 -19 -23 -46
-56 -61 -74 l-28 -31 20 57 c11 32 20 69 20 83 0 60 -40 83 -88 49 -32 -22
-153 -174 -147 -185 8 -12 -119 -139 -139 -139 -9 0 -16 5 -16 11 0 14 103
218 136 271 13 21 24 40 24 42 0 2 -20 3 -45 2 -31 -2 -50 -9 -59 -22 -14 -18
-15 -18 -36 9 -30 38 -83 37 -136 -2z m126 4 c19 -23 6 -66 -47 -162 -55 -98
-101 -153 -131 -153 -38 0 -33 31 24 149 83 171 118 209 154 166z"/>
<path d="M5944 4075 c-22 -17 -114 -209 -114 -237 0 -34 32 -68 63 -68 15 0
18 3 9 9 -15 9 39 120 117 238 l48 71 -55 -1 c-30 -1 -61 -6 -68 -12z"/>
<path d="M7349 4064 c-10 -11 -19 -26 -19 -33 0 -7 -4 -9 -10 -6 -5 3 -7 0 -4
-8 3 -8 -9 -37 -27 -65 -43 -70 -53 -125 -27 -157 13 -16 29 -25 46 -24 15 0
21 3 15 6 -7 2 -13 10 -13 17 0 16 107 202 142 247 15 20 28 39 28 41 0 2 -25
4 -56 4 -42 -1 -60 -6 -75 -22z"/>
<path d="M9076 4059 c-12 -14 -23 -32 -23 -40 0 -7 -17 -43 -39 -78 -42 -70
-48 -119 -18 -152 9 -10 29 -19 43 -19 18 0 22 3 12 9 -8 5 -11 16 -6 30 9 29
87 162 131 224 19 26 34 48 34 50 0 2 -25 3 -56 3 -46 -1 -59 -5 -78 -27z"/>
<path d="M10091 4060 c-11 -14 -21 -30 -21 -37 0 -6 -18 -42 -40 -81 -45 -77
-51 -121 -20 -152 23 -23 70 -29 51 -7 -8 11 4 39 52 124 34 60 73 122 85 138
12 15 22 31 22 35 0 4 -24 7 -54 6 -45 -1 -58 -5 -75 -26z"/>
<path d="M7470 3922 c0 -7 -30 -42 -67 -80 -37 -37 -54 -59 -39 -48 46 29 123
122 112 133 -3 4 -6 1 -6 -5z"/>
<path d="M5990 3849 c-36 -38 -63 -69 -59 -69 11 0 129 120 129 131 0 13 3 15
-70 -62z"/>
<path d="M9138 3850 c-37 -39 -59 -66 -49 -61 30 16 136 133 119 131 -2 -1
-33 -32 -70 -70z"/>
<path d="M3226 3872 c-22 -27 -24 -32 -7 -17 20 17 47 55 39 55 -2 0 -16 -17
-32 -38z"/>
<path d="M3411 3684 c-26 -33 -26 -46 -1 -69 41 -37 101 14 80 70 -13 34 -52
33 -79 -1z"/>
</g>
</svg>
